Coordinates
version=1
nRows=38
nColumns=12
inDegrees=yes

Units are S.I. units (second, meters, Newtons, ...)
Angles are in degrees

endheader
time	SC_y	SC_z	SC_x	AC_y	AC_z	AC_x	GH_y	GH_z	GH_yy	EL_x	PS_y
       0.0              -30.96          14.29          55.04          56.94         -17.61         -7.491         -37.08          59.99         -174.4          85.66          125.3
   0.02419              -30.96          14.29          55.04          56.94          -17.6         -7.488         -37.09          59.98         -174.4          85.65          125.3
   0.04837              -30.96           14.3          55.03          56.94          -17.6         -7.484         -37.11          59.97         -174.4          85.65          125.3
   0.07256              -30.95           14.3          55.03          56.94         -17.59          -7.48         -37.12          59.96         -174.4          85.64          125.3
   0.09675              -30.95           14.3          55.03          56.93         -17.59         -7.475         -37.14          59.95         -174.4          85.64          125.3
    0.1209              -30.95          14.31          55.02          56.93         -17.58         -7.471         -37.16          59.93         -174.3          85.63          125.3
    0.1451              -30.95          14.31          55.02          56.93         -17.58         -7.466         -37.18          59.92         -174.3          85.62          125.3
    0.1693              -30.94          14.32          55.01          56.93         -17.57          -7.46          -37.2           59.9         -174.3          85.61          125.2
    0.1935              -30.94          14.32          55.01          56.93         -17.57         -7.455         -37.22          59.89         -174.3           85.6          125.2
    0.2177              -30.94          14.33           55.0          56.92         -17.56         -7.449         -37.25          59.87         -174.3           85.6          125.2
    0.2419              -30.93          14.33           55.0          56.92         -17.55         -7.442         -37.27          59.85         -174.2          85.59          125.2
    0.2661              -30.93          14.34          54.99          56.92         -17.55         -7.435          -37.3          59.83         -174.2          85.58          125.1
    0.2902              -30.92          14.35          54.99          56.92         -17.54         -7.427         -37.33          59.81         -174.2          85.57          125.1
    0.3144              -30.92          14.35          54.98          56.91         -17.53         -7.419         -37.36          59.79         -174.2          85.55          125.1
    0.3386              -30.92          14.36          54.97          56.91         -17.52          -7.41          -37.4          59.76         -174.1          85.54          125.1
    0.3628              -30.91          14.37          54.96          56.91         -17.51         -7.401         -37.43          59.73         -174.1          85.53          125.0
     0.387               -30.9          14.38          54.95           56.9          -17.5          -7.39         -37.47           59.7         -174.1          85.51          125.0
    0.4112               -30.9          14.39          54.94           56.9         -17.49         -7.379         -37.52          59.67         -174.0          85.49          125.0
    0.4354              -30.89           14.4          54.93          56.89         -17.48         -7.366         -37.57          59.63         -174.0          85.48          124.9
    0.4596              -30.88          14.42          54.92          56.89         -17.46         -7.353         -37.62          59.59         -174.0          85.46          124.9
    0.4837              -30.88          14.43          54.91          56.88         -17.45         -7.338         -37.68          59.55         -173.9          85.43          124.8
    0.5079              -30.87          14.44           54.9          56.87         -17.43         -7.321         -37.74           59.5         -173.9          85.41          124.7
    0.5321              -30.86          14.46          54.88          56.87         -17.41         -7.303         -37.82          59.45         -173.8          85.38          124.7
    0.5563              -30.84          14.48          54.86          56.86         -17.39         -7.283          -37.9          59.39         -173.7          85.35          124.6
    0.5805              -30.83           14.5          54.85          56.85         -17.36          -7.26         -37.98          59.33         -173.7          85.32          124.5
    0.6047              -30.82          14.52          54.82          56.84         -17.34         -7.235         -38.08          59.26         -173.6          85.29          124.4
    0.6289               -30.8          14.55           54.8          56.83         -17.31         -7.207         -38.19          59.18         -173.5          85.24          124.4
    0.6531              -30.79          14.58          54.78          56.82         -17.27         -7.176         -38.31          59.09         -173.4           85.2          124.2
    0.6772              -30.77          14.61          54.75           56.8         -17.24          -7.14         -38.45          58.98         -173.3          85.15          124.1
    0.7014              -30.74          14.65          54.71          56.79         -17.19           -7.1         -38.61          58.87         -173.2          85.09          124.0
    0.7256              -30.72          14.69          54.67          56.77         -17.15         -7.053         -38.79          58.73         -173.0          85.02          123.8
    0.7498              -30.69          14.74          54.63          56.75         -17.09           -7.0          -39.0          58.58         -172.9          84.94          123.6
     0.774              -30.65          14.79          54.58          56.73         -17.03         -6.939         -39.24           58.4         -172.7          84.85          123.4
    0.7982              -30.62          14.86          54.52           56.7         -16.95         -6.868         -39.52           58.2         -172.4          84.75          123.2
    0.8224              -30.57          14.94          54.45          56.67         -16.86         -6.785         -39.84          57.96         -172.2          84.63          122.9
    0.8466              -30.51          15.03          54.37          56.63         -16.76         -6.687         -40.23          57.68         -171.9          84.49          122.5
    0.8707              -30.45          15.13          54.27          56.58         -16.64          -6.57         -40.68          57.34         -171.5          84.32          122.1
    0.8949              -30.37          15.26          54.15          56.53         -16.49          -6.43         -41.23          56.94         -171.0          84.11          121.6
